<?xml version="1.0" standalone="no"?>
<!DOCTYPE svg PUBLIC "-//W3C//DTD SVG 20010904//EN"
 "http://www.w3.org/TR/2001/REC-SVG-20010904/DTD/svg10.dtd">
<svg version="1.0" xmlns="http://www.w3.org/2000/svg"
 width="315.000000pt" height="317.000000pt" viewBox="0 0 315.000000 317.000000"
 preserveAspectRatio="xMidYMid meet">

<g transform="translate(0.000000,317.000000) scale(0.100000,-0.100000)"
fill="#000000" stroke="none">
<path d="M1318 3137 c-26 -17 -44 -34 -40 -38 4 -3 24 -9 44 -12 29 -4 40 -2
48 11 8 14 9 14 10 2 0 -13 1 -13 10 0 9 13 11 13 20 0 9 -13 10 -13 10 0 0
12 2 12 9 2 6 -11 19 -11 62 -3 106 22 165 38 199 54 34 16 29 16 -145 16
l-180 0 -47 -32z"/>
<path d="M1695 3120 c-38 -27 -74 -49 -78 -50 -17 0 -37 -29 -31 -44 3 -9 1
-16 -5 -16 -6 0 -11 7 -11 14 0 12 -6 13 -32 4 -33 -12 -33 -12 -8 -19 48 -13
121 -9 182 12 49 16 63 18 70 7 8 -10 9 -10 5 2 -2 10 13 23 46 38 27 13 51
21 54 19 2 -3 -7 -18 -21 -34 -14 -17 -27 -47 -29 -70 -5 -40 -4 -41 21 -37
l26 5 -19 -22 -20 -21 40 16 c21 9 42 21 46 27 3 6 9 9 12 7 3 -1 20 10 39 27
18 16 34 28 36 27 2 -2 12 7 22 19 24 27 56 19 40 -10 -16 -32 -12 -55 15 -67
13 -7 24 -9 23 -5 -2 18 3 31 13 31 6 0 8 -9 3 -22 -6 -21 -6 -21 11 -4 10 10
36 29 58 43 47 29 68 20 49 -22 -16 -36 -17 -35 28 -35 22 0 40 -4 40 -10 0
-12 10 -13 29 -1 8 5 14 24 13 42 -1 24 2 29 9 19 8 -13 12 -11 28 9 15 20 19
21 24 7 4 -9 16 -16 27 -16 11 0 20 -6 20 -12 0 -8 5 -6 10 3 10 18 53 14 95
-8 11 -6 26 -8 33 -6 6 3 16 -6 20 -18 9 -23 9 -23 16 4 5 22 9 25 20 15 7 -7
11 -20 8 -30 -3 -12 1 -18 13 -18 12 0 16 -6 12 -20 -3 -11 -1 -20 4 -20 5 0
9 5 9 11 0 5 4 8 9 5 5 -3 12 11 16 31 6 31 8 34 16 20 6 -9 7 -22 3 -29 -4
-6 -3 -8 3 -5 6 4 22 -5 36 -18 l25 -26 -14 38 c-25 70 -15 176 18 194 23 13
48 -4 48 -32 0 -12 11 -24 28 -30 57 -23 71 -32 66 -41 -3 -5 -13 -7 -21 -4
-8 3 -11 1 -8 -4 3 -6 -1 -10 -10 -10 -8 0 -18 8 -22 18 -7 21 -64 82 -76 82
-4 0 -6 -3 -4 -7 3 -5 1 -37 -4 -73 -8 -51 -6 -74 6 -106 20 -53 56 -100 75
-98 29 2 31 4 20 23 -8 15 -7 19 6 17 20 -3 33 -24 27 -45 -2 -10 3 -23 11
-30 9 -8 16 -18 16 -24 0 -5 -10 -2 -22 9 l-23 19 18 -22 c11 -13 25 -19 34
-16 13 5 14 3 3 -17 -11 -20 -10 -22 4 -17 19 8 21 -4 4 -22 -11 -11 -10 -13
5 -8 12 5 8 -5 -14 -33 -35 -44 -45 -51 -29 -20 7 14 7 20 0 20 -9 0 -15 -22
-11 -44 4 -20 -10 -57 -19 -51 -10 6 -11 3 -15 -50 -2 -16 -6 -41 -11 -55 -7
-23 -6 -24 10 -11 16 13 16 12 4 -15 -18 -43 -44 -74 -54 -66 -5 4 -2 -1 5
-10 7 -10 9 -18 4 -18 -5 0 -10 -6 -10 -14 0 -16 19 -15 39 2 11 9 19 9 32 -1
16 -12 15 -15 -13 -36 -17 -13 -29 -27 -26 -31 2 -4 -7 -6 -20 -4 -14 1 -28
-2 -31 -7 -3 -6 -11 -5 -20 2 -8 6 -14 9 -14 6 0 -4 -25 8 -57 25 -38 21 -72
31 -103 33 -45 1 -48 -1 -66 -34 -10 -20 -19 -38 -20 -40 -2 -1 -8 0 -13 4 -8
4 -6 12 5 23 13 12 14 17 4 20 -14 5 -51 -38 -44 -50 3 -4 -1 -8 -8 -8 -10 0
-9 -3 2 -11 8 -6 11 -12 5 -15 -45 -20 -60 -32 -57 -48 2 -10 -4 -34 -13 -53
-19 -40 -10 -81 27 -120 24 -26 78 -39 103 -25 15 8 13 10 -11 16 -34 9 -64
33 -64 53 0 16 5 16 48 4 48 -14 72 -2 33 16 -40 20 -46 40 -19 68 21 22 24
22 50 9 19 -10 52 -14 96 -12 60 3 72 0 99 -22 18 -14 32 -31 32 -38 1 -7 6
-10 12 -6 7 4 10 -4 8 -22 -4 -36 7 -54 32 -54 40 0 8 -62 -44 -84 l-32 -13
28 -8 c65 -17 118 26 135 110 12 59 8 79 -20 109 -21 23 -23 37 -5 55 10 10 9
11 -5 6 -25 -10 -23 17 2 40 24 22 73 14 63 -11 -4 -10 1 -17 15 -21 20 -5 20
-6 5 -29 -9 -14 -13 -27 -10 -30 3 -4 33 -3 66 1 l59 7 1 549 1 549 -261 0
c-245 0 -261 -1 -254 -17 3 -10 9 -31 12 -48 7 -37 41 -87 54 -80 5 4 6 -1 3
-9 -3 -9 1 -23 10 -32 9 -8 13 -20 10 -26 -5 -7 -11 -5 -19 5 -7 10 -17 17
-24 17 -6 0 -11 9 -11 20 0 11 -4 20 -10 20 -5 0 -10 7 -10 15 0 8 -3 15 -7
15 -5 0 -9 10 -9 23 -1 12 -4 36 -7 52 -3 17 -6 33 -6 38 -1 4 -193 7 -428 6
l-428 0 -70 -49z m1032 6 c4 -7 15 -15 23 -18 13 -5 12 -7 -2 -13 -24 -9 -44
-1 -58 24 -9 18 -8 21 9 21 11 0 24 -6 28 -14z m293 -376 c0 -5 -8 -10 -17
-10 -15 0 -16 2 -3 10 19 12 20 12 20 0z m-107 -655 c4 -8 1 -17 -5 -21 -7 -4
-8 -3 -4 4 4 8 0 12 -11 12 -15 0 -16 2 -3 10 19 12 17 13 23 -5z m-43 -9 c0
-2 -7 -7 -16 -10 -8 -3 -12 -2 -9 4 6 10 25 14 25 6z m84 -77 c-7 -11 -34 -12
-34 -1 0 14 11 21 26 15 8 -3 11 -9 8 -14z"/>
<path d="M801 3127 c2 -1 15 -11 29 -22 l25 -20 -19 23 c-11 12 -24 22 -29 22
-6 0 -8 -1 -6 -3z"/>
<path d="M900 3055 c23 -30 50 -56 50 -47 0 5 -14 21 -32 38 -18 16 -26 20
-18 9z"/>
<path d="M731 3032 c-18 -33 -30 -237 -17 -279 3 -10 8 -32 10 -48 9 -65 53
-162 107 -234 21 -29 96 -83 152 -111 43 -21 70 -85 42 -97 -21 -7 -19 -26 4
-40 16 -10 23 -7 45 18 14 16 26 33 26 39 0 5 7 10 15 10 22 0 18 -12 -11 -35
-18 -14 -26 -31 -26 -51 0 -16 -10 -42 -22 -59 -12 -16 -26 -39 -29 -49 -7
-17 -5 -17 10 -5 10 7 7 1 -6 -13 -13 -16 -20 -32 -16 -39 6 -8 4 -10 -4 -4
-9 5 -12 -1 -10 -21 2 -16 0 -35 -5 -42 -4 -7 -5 -16 -2 -19 3 -4 0 -13 -8
-22 -8 -9 -15 -19 -15 -23 -1 -5 -1 -9 -2 -10 0 -2 -2 -12 -4 -23 -2 -11 -11
-25 -19 -31 -19 -13 -22 -39 -3 -28 6 4 3 -3 -8 -16 l-20 -23 20 11 c11 5 29
20 39 31 31 34 146 56 161 31 3 -6 20 -17 38 -26 l31 -17 -27 32 c-32 39 -42
86 -28 137 14 51 20 58 58 78 45 23 48 20 20 -13 -35 -42 -42 -102 -18 -155
10 -24 24 -46 29 -50 6 -4 5 6 -3 21 -17 32 -19 63 -5 63 6 0 10 -4 10 -10 0
-5 10 -18 22 -30 31 -28 72 -26 97 6 l21 27 0 -32 c0 -26 -6 -34 -32 -46 -18
-8 -26 -14 -18 -15 25 0 61 30 76 64 7 17 13 25 14 18 0 -7 -5 -22 -10 -33
-13 -23 -10 -23 38 -4 21 9 32 19 26 23 -6 4 -11 14 -11 24 0 12 7 15 24 12
18 -4 22 -1 17 8 -5 7 -9 24 -9 38 0 14 -4 31 -9 38 -5 8 -3 12 6 10 7 -2 12
5 12 15 -2 17 -1 17 16 2 17 -15 17 -14 7 24 -6 23 -15 37 -21 33 -6 -3 -4 3
4 13 8 10 10 16 4 12 -7 -4 -22 1 -35 12 -27 22 -67 17 -48 -6 8 -9 2 -8 -19
4 -40 23 -49 13 -35 -40 l11 -42 -31 36 c-29 32 -128 95 -113 71 3 -5 -9 -13
-27 -16 -19 -3 -44 -17 -57 -31 -24 -26 -50 -33 -50 -15 0 25 30 78 54 97 31
25 33 33 6 28 -19 -4 -19 -3 -4 21 9 13 22 24 29 24 8 0 17 9 20 20 3 11 12
20 18 20 7 0 6 4 -3 10 -13 9 -13 11 0 20 11 7 11 10 2 10 -7 0 -15 -7 -18
-15 -4 -8 -16 -15 -28 -15 -12 0 -27 -5 -32 -10 -6 -6 -18 -8 -27 -4 -14 5
-15 8 -2 21 13 12 13 17 -2 41 -9 15 -26 35 -37 45 -12 10 -14 15 -6 11 11 -5
10 -2 -3 13 -9 11 -14 23 -10 26 3 4 -2 17 -13 29 -10 12 -13 18 -5 13 9 -5 7
1 -4 19 -10 14 -14 26 -11 26 4 0 -3 18 -15 41 -11 23 -15 38 -9 34 9 -5 9 -1
0 15 -7 13 -13 42 -15 64 -1 23 -7 54 -13 69 -7 16 -12 31 -12 33 0 19 -97
149 -146 197 -63 61 -78 67 -93 39z m614 -995 c21 -16 13 -37 -15 -37 -22 0
-34 15 -26 35 7 19 17 19 41 2z"/>
<path d="M1158 2993 c5 -21 7 -23 10 -9 2 10 0 22 -6 28 -6 6 -7 0 -4 -19z"/>
<path d="M1102 2990 c0 -14 2 -19 5 -12 2 6 2 18 0 25 -3 6 -5 1 -5 -13z"/>
<path d="M1042 2910 c7 -11 19 -22 28 -25 8 -4 4 5 -9 19 -29 31 -36 33 -19 6z"/>
<path d="M2116 2915 c4 -8 8 -15 10 -15 2 0 4 7 4 15 0 8 -4 15 -10 15 -5 0
-7 -7 -4 -15z"/>
<path d="M1688 2893 c7 -3 16 -2 19 1 4 3 -2 6 -13 5 -11 0 -14 -3 -6 -6z"/>
<path d="M1800 2880 c14 -4 36 -8 50 -8 22 0 22 1 -5 8 -16 4 -39 8 -50 8 -16
0 -15 -2 5 -8z"/>
<path d="M651 2864 c0 -11 3 -14 6 -6 3 7 2 16 -1 19 -3 4 -6 -2 -5 -13z"/>
<path d="M1948 2838 c5 -5 16 -8 23 -6 8 3 3 7 -10 11 -17 4 -21 3 -13 -5z"/>
<path d="M1539 2823 c-13 -16 -12 -17 4 -4 9 7 17 15 17 17 0 8 -8 3 -21 -13z"/>
<path d="M1120 2825 c0 -5 5 -17 10 -25 5 -8 10 -10 10 -5 0 6 -5 17 -10 25
-5 8 -10 11 -10 5z"/>
<path d="M1581 2808 c-12 -12 -17 -28 -13 -40 4 -16 2 -19 -8 -13 -9 5 -11 4
-6 -4 4 -6 3 -17 -3 -24 -13 -17 -32 -134 -24 -154 4 -11 3 -14 -5 -9 -12 7
-13 3 -15 -51 0 -22 4 -27 17 -25 11 2 15 -1 11 -8 -4 -7 5 -10 27 -10 18 1
56 -3 83 -8 l50 -9 -44 -9 -44 -9 35 -19 c23 -13 42 -16 54 -11 17 7 17 8 -6
15 -25 6 -25 6 -3 14 24 8 51 -2 52 -19 1 -5 15 -10 33 -10 28 0 34 6 58 53
15 29 30 61 33 72 3 11 11 20 17 20 7 0 10 -7 6 -16 -3 -8 -2 -12 4 -9 5 3 31
-10 57 -28 26 -19 59 -38 73 -42 14 -4 46 -18 72 -31 59 -30 103 -31 118 -4
17 31 0 131 -27 162 -18 20 -50 13 -33 -7 8 -9 8 -15 0 -20 -5 -3 -10 0 -10 8
0 8 -9 22 -20 32 -11 10 -18 20 -16 23 5 4 -19 32 -27 32 -2 0 -3 -19 -1 -42
3 -32 1 -39 -7 -28 -9 13 -10 13 -6 0 2 -8 10 -15 17 -15 16 0 37 -31 28 -41
-4 -3 -14 1 -23 10 -15 14 -36 21 -58 17 -5 -1 -21 8 -37 19 -15 11 -32 20
-37 20 -4 1 -21 12 -38 26 -16 15 -24 23 -17 20 6 -4 12 -2 12 3 0 6 -5 11
-11 11 -7 0 -18 8 -26 18 -9 10 -12 11 -7 2 4 -8 -4 -5 -18 8 -13 12 -28 19
-33 15 -4 -5 -6 -3 -3 2 4 6 -4 23 -17 39 -20 25 -26 28 -39 17 -15 -12 -20
-8 -17 11 0 4 -6 5 -14 2 -8 -4 -17 1 -21 10 -3 9 -11 16 -18 16 -6 0 -29 9
-49 19 -37 19 -38 19 -56 -1z"/>
<path d="M1995 2823 c26 -24 88 -65 73 -47 -9 10 -32 28 -50 38 -18 10 -28 15
-23 9z"/>
<path d="M2930 2821 c0 -6 4 -13 10 -16 6 -3 7 1 4 9 -7 18 -14 21 -14 7z"/>
<path d="M1060 2750 c0 -5 5 -10 11 -10 5 0 7 5 4 10 -3 6 -8 10 -11 10 -2 0
-4 -4 -4 -10z"/>
<path d="M2099 2743 c6 -13 20 -27 31 -33 27 -15 25 -10 -12 25 -25 24 -29 25
-19 8z"/>
<path d="M1071 2714 c7 -9 13 -23 14 -32 2 -23 24 -91 40 -124 9 -17 10 -30 4
-33 -5 -4 0 -19 11 -36 12 -16 19 -29 16 -29 -3 0 1 -12 9 -26 7 -14 12 -37
10 -51 -2 -22 1 -24 29 -22 17 1 40 1 51 0 17 -1 18 -3 5 -12 -16 -11 -14 -11
53 13 39 14 33 27 -11 21 -30 -4 -41 -1 -57 18 -11 12 -14 19 -7 15 6 -4 12
-2 12 4 0 7 6 8 19 0 26 -13 31 -13 31 5 0 8 -13 29 -30 47 -16 17 -30 38 -30
47 0 14 -2 14 -10 1 -7 -11 -10 -7 -10 18 0 17 -5 32 -11 32 -6 0 -8 -9 -4
-22 5 -18 4 -20 -4 -8 -6 8 -8 31 -6 50 3 19 2 30 -1 23 -6 -13 -31 -7 -55 14
-9 7 -20 10 -25 6 -5 -5 -6 -4 -2 1 4 5 2 18 -4 30 -7 11 -13 23 -14 26 -4 20
-18 40 -26 40 -6 0 -5 -7 3 -16z m69 -104 c0 -5 -2 -10 -4 -10 -3 0 -8 5 -11
10 -3 6 -1 10 4 10 6 0 11 -4 11 -10z m16 -26 c-5 -12 -2 -15 11 -10 14 6 15
5 6 -5 -10 -10 -16 -9 -28 1 -13 11 -13 15 -3 21 19 12 21 11 14 -7z"/>
<path d="M660 2680 c0 -5 5 -10 11 -10 5 0 7 5 4 10 -3 6 -8 10 -11 10 -2 0
-4 -4 -4 -10z"/>
<path d="M1133 2665 c0 -8 4 -15 9 -15 4 0 8 4 8 9 0 6 -4 12 -8 15 -5 3 -9
-1 -9 -9z"/>
<path d="M1160 2653 c0 -13 5 -23 10 -23 13 0 13 11 0 30 -8 12 -10 11 -10 -7z"/>
<path d="M2965 2650 c-3 -5 -1 -10 4 -10 6 0 11 5 11 10 0 6 -2 10 -4 10 -3 0
-8 -4 -11 -10z"/>
<path d="M2893 2555 c-3 -9 -3 -18 -1 -21 3 -3 8 4 11 16 6 23 -1 27 -10 5z"/>
<path d="M1267 2529 c4 -13 8 -18 11 -10 2 7 -1 18 -6 23 -8 8 -9 4 -5 -13z"/>
<path d="M1422 2478 c16 -10 45 -10 51 0 3 4 -10 7 -29 8 -21 0 -30 -3 -22 -8z"/>
<path d="M1335 2440 c-4 -6 -11 -7 -17 -4 -7 4 -8 2 -4 -5 6 -9 11 -9 22 0 14
11 18 19 10 19 -3 0 -8 -5 -11 -10z"/>
<path d="M1428 2373 c7 -3 16 -2 19 1 4 3 -2 6 -13 5 -11 0 -14 -3 -6 -6z"/>
<path d="M1584 2365 c11 -8 21 -26 22 -41 2 -22 1 -24 -12 -13 -8 7 -14 8 -13
3 6 -31 -2 -37 -23 -16 -26 23 -69 42 -99 42 -31 0 -13 -17 26 -24 20 -4 51
-20 69 -37 28 -24 35 -26 40 -13 3 8 10 13 15 10 12 -8 20 41 9 52 -17 17 11
24 40 9 26 -13 28 -12 29 7 1 12 -1 15 -4 9 -3 -10 -9 -9 -26 1 -12 7 -38 16
-57 20 -32 5 -34 5 -16 -9z"/>
<path d="M1755 2350 c3 -5 8 -10 11 -10 2 0 4 5 4 10 0 6 -5 10 -11 10 -5 0
-7 -4 -4 -10z"/>
<path d="M1160 2340 c0 -16 17 -20 28 -7 8 10 6 13 -9 14 -10 1 -19 -2 -19 -7z"/>
<path d="M1803 2294 c-18 -8 -33 -20 -33 -27 0 -8 4 -7 10 3 5 8 10 11 10 6 0
-6 5 -5 12 2 7 7 20 12 30 12 10 0 18 5 18 10 0 13 -7 12 -47 -6z"/>
<path d="M1730 2219 c-8 -18 -18 -28 -26 -25 -8 3 -14 -1 -14 -9 0 -8 -6 -18
-14 -22 -21 -13 -30 -79 -11 -87 9 -3 15 -18 15 -36 0 -39 26 -103 39 -96 5 4
12 -2 16 -13 3 -11 13 -22 22 -25 13 -5 14 -4 3 9 -18 22 -9 26 29 12 31 -11
34 -10 59 18 16 19 27 25 30 17 8 -26 22 -10 22 27 0 48 -14 89 -42 119 -30
31 0 30 35 -2 42 -39 55 -113 31 -181 -5 -16 -3 -15 12 4 10 15 18 43 19 69 0
25 6 47 14 52 12 7 12 12 -3 34 -9 14 -14 26 -11 26 3 0 1 10 -6 21 -9 17 -13
19 -20 8 -6 -10 -9 -10 -9 -2 0 7 -14 29 -32 48 -26 30 -36 35 -57 30 -27 -7
-61 -32 -59 -44 2 -9 -42 -101 -49 -101 -6 0 10 120 23 163 9 28 -3 19 -16
-14z m118 -132 c4 -20 -25 -34 -40 -19 -15 15 -1 44 19 40 10 -2 19 -11 21
-21z"/>
<path d="M1049 2173 c-13 -16 -12 -17 4 -4 9 7 17 15 17 17 0 8 -8 3 -21 -13z"/>
<path d="M1614 2115 c-12 -8 -24 -12 -28 -10 -3 3 -4 2 -1 -2 11 -14 32 -10
43 8 15 23 13 23 -14 4z"/>
<path d="M1591 2054 c0 -11 3 -14 6 -6 3 7 2 16 -1 19 -3 4 -6 -2 -5 -13z"/>
<path d="M1863 1909 c-6 -6 -26 -15 -45 -19 l-33 -8 31 -1 c19 -1 38 7 49 19
19 21 17 28 -2 9z"/>
<path d="M1675 1889 c-11 -4 -41 -5 -67 -2 -27 3 -48 3 -48 -1 0 -13 78 -56
93 -50 15 6 52 53 45 59 -2 1 -12 -1 -23 -6z"/>
<path d="M1637 1786 c-10 -25 -69 -56 -108 -56 -22 0 -51 10 -73 25 -21 14
-41 23 -46 20 -11 -7 13 -76 46 -132 51 -88 109 -118 175 -90 29 12 39 26 68
93 19 43 42 88 51 99 29 34 36 53 13 33 -26 -24 -72 -23 -99 3 -18 17 -22 18
-27 5z m43 -41 c18 -22 5 -44 -27 -44 -15 0 -37 -2 -48 -3 -33 -5 -29 27 7 44
42 21 53 22 68 3z m-53 -181 c-3 -3 -12 -4 -19 -1 -8 3 -5 6 6 6 11 1 17 -2
13 -5z"/>
<path d="M2040 1781 c0 -5 -12 -12 -26 -15 -15 -4 -24 -10 -20 -13 3 -3 -4
-11 -17 -18 -12 -6 -21 -17 -19 -23 1 -7 -3 -12 -9 -12 -6 0 -25 -10 -42 -22
-18 -13 -35 -24 -39 -24 -5 -1 -14 -2 -20 -3 -9 -1 -9 -4 2 -12 12 -8 8 -10
-15 -6 -16 3 -38 9 -48 13 -10 3 -17 3 -15 -2 2 -5 -2 -10 -7 -12 -5 -2 -19
-11 -29 -20 -15 -13 -17 -13 -11 -2 5 9 0 8 -13 -4 -12 -11 -22 -25 -22 -33 0
-8 -13 -28 -29 -44 -23 -22 -39 -29 -69 -29 -48 0 -72 8 -72 24 0 6 -15 23
-33 37 -23 19 -39 24 -57 19 -29 -7 -72 -6 -86 2 -23 14 -83 25 -95 17 -7 -4
-19 -3 -25 2 -8 7 -14 6 -19 -1 -9 -15 -25 -12 -25 6 0 8 -5 12 -11 9 -18 -12
-61 4 -55 20 4 11 0 12 -21 4 -18 -6 -30 -6 -39 2 -8 6 -14 8 -14 4 0 -4 -7
-2 -15 5 -8 7 -13 16 -10 20 3 4 -5 10 -16 13 -21 6 -20 5 2 -21 13 -15 29
-30 36 -35 7 -4 19 -14 27 -22 8 -8 22 -15 31 -15 9 0 14 -4 10 -9 -3 -6 4
-15 15 -21 36 -19 21 -29 -60 -36 -44 -3 -83 -11 -86 -15 -3 -5 2 -9 11 -9 22
0 77 -30 92 -49 10 -13 9 -18 -4 -28 -9 -7 -22 -13 -27 -13 -6 0 -2 7 9 16 18
13 17 14 -15 8 -26 -4 -31 -3 -20 5 13 9 13 11 -1 11 -27 0 -30 -27 -6 -43 22
-14 21 -15 -18 -26 -25 -7 -41 -7 -43 -1 -2 5 -14 -3 -27 -17 -21 -25 -24 -60
-4 -47 14 8 10 -30 -5 -52 -26 -37 -104 -17 -89 23 3 7 0 13 -6 13 -10 0 -16
-25 -13 -61 1 -9 -4 -16 -11 -16 -7 0 -19 -4 -28 -7 -10 -5 -20 1 -27 16 -12
22 -12 21 -6 -7 9 -47 43 -78 78 -71 24 5 27 3 21 -12 -24 -57 -28 -71 -22
-87 5 -12 14 -15 32 -11 28 7 29 5 15 -42 -20 -70 34 -125 135 -139 46 -6 46
-7 24 -19 -13 -7 -19 -14 -14 -14 6 0 -1 -9 -14 -19 -14 -10 -25 -25 -27 -32
-1 -8 -5 -26 -9 -42 -4 -17 -3 -27 3 -27 7 0 6 -12 -3 -33 -11 -26 -11 -37 -3
-45 7 -7 8 -12 4 -12 -5 0 -3 -7 4 -15 7 -8 9 -15 6 -15 -4 0 2 -9 13 -21 11
-12 23 -19 28 -16 5 3 7 -7 5 -24 -3 -23 0 -29 14 -30 25 -2 26 -2 49 7 11 4
17 3 12 -1 -4 -5 7 -14 25 -20 26 -9 39 -8 61 2 15 7 27 11 27 7 0 -4 7 -1 15
6 8 7 15 9 15 4 0 -4 20 11 44 35 32 32 49 41 63 37 18 -6 21 0 26 68 9 102
36 183 98 288 16 27 29 51 29 53 0 7 -42 -4 -54 -14 -7 -6 -22 -9 -35 -8 -17
1 -22 6 -18 22 3 18 0 21 -21 17 -26 -5 -27 1 -6 65 4 13 3 14 -4 5 -11 -16
-65 -46 -57 -32 9 14 -9 12 -22 -1 -9 -9 -10 -6 -6 10 3 13 13 25 22 28 9 4
22 11 30 17 18 14 41 16 41 4 0 -7 5 -7 13 1 8 6 17 7 22 3 4 -4 6 -1 3 7 -5
17 -98 27 -98 11 0 -6 5 -8 12 -4 7 5 8 3 4 -5 -5 -7 -10 -10 -13 -7 -3 3 -14
1 -23 -4 -15 -8 -17 -6 -13 13 4 17 3 19 -6 7 -5 -8 -12 -12 -15 -9 -12 11 60
72 75 63 5 -3 12 1 15 9 3 10 18 14 45 12 39 -2 39 -2 37 32 -3 45 16 56 57
33 37 -21 133 -88 153 -107 7 -7 18 -13 23 -13 5 0 11 -10 14 -22 5 -19 13
-23 52 -24 25 -1 48 -6 52 -10 3 -5 18 -15 34 -22 15 -6 33 -24 40 -39 6 -16
18 -34 26 -42 25 -27 -10 -191 -41 -191 -5 0 -8 -8 -9 -17 0 -10 -3 -13 -5 -6
-3 6 4 28 15 49 12 21 21 46 21 56 0 26 -11 48 -21 42 -5 -3 -9 1 -9 9 0 8 -9
22 -20 32 -11 10 -20 28 -20 39 -1 20 -1 20 -11 3 -6 -10 -8 -24 -5 -32 2 -7
-1 -18 -8 -25 -10 -8 -15 -7 -20 6 -9 23 -8 26 7 18 9 -6 9 -4 -1 8 -7 9 -21
14 -32 11 -21 -5 -70 -57 -70 -73 0 -6 -6 -5 -14 2 -8 7 -12 16 -9 21 7 11
-10 8 -27 -6 -9 -7 -36 -41 -60 -77 -25 -36 -48 -66 -52 -68 -5 -2 -8 -12 -8
-22 0 -11 -7 -23 -16 -28 -9 -5 -16 -13 -16 -18 -1 -10 -12 -40 -40 -104 -15
-36 -17 -51 -9 -73 7 -17 7 -27 1 -27 -6 0 -10 5 -10 10 0 20 -15 9 -38 -26
-13 -20 -29 -33 -36 -31 -10 4 -37 -23 -41 -43 -4 -16 -26 -67 -35 -80 -6 -8
-15 -26 -20 -39 -6 -13 -19 -35 -29 -50 -10 -14 -20 -35 -23 -46 -4 -25 20
-55 47 -56 17 -1 18 -2 2 -6 -10 -3 -25 1 -33 8 -20 16 -30 4 -13 -17 8 -10
24 -14 46 -12 18 2 33 0 33 -4 0 -5 9 -3 20 4 15 10 22 10 32 0 11 -11 8 -17
-12 -32 -14 -11 -20 -20 -13 -20 65 -1 163 97 207 206 26 67 32 75 50 69 12
-4 36 -9 54 -10 18 -2 36 -5 39 -8 2 -3 22 1 44 8 22 8 43 14 47 15 45 3 126
68 143 115 7 19 17 35 21 35 4 0 8 8 8 18 0 9 7 31 16 47 16 30 25 72 28 132
0 21 12 44 30 63 l28 31 -26 60 c-20 47 -26 76 -26 136 l0 76 33 -9 c46 -11
154 -7 206 8 48 14 102 68 120 120 9 27 9 29 -4 18 -25 -21 -26 -6 -3 41 21
44 28 93 14 106 -4 4 -35 9 -69 11 -88 4 -86 3 -93 25 -15 46 39 87 89 68 24
-9 77 -65 77 -82 0 -21 20 -7 27 19 9 37 6 63 -8 76 -9 8 -10 7 -5 -4 7 -13 6
-13 -6 0 -7 8 -30 26 -50 40 -27 18 -34 28 -27 37 6 6 17 9 25 6 8 -3 14 0 14
7 0 9 10 10 33 5 64 -13 117 -17 117 -8 0 14 -22 39 -45 51 -16 9 -9 11 42 12
67 0 85 11 53 33 -11 7 -17 17 -12 21 4 4 3 7 -3 5 -5 -1 -25 2 -44 6 -34 8
-34 8 -13 25 20 17 19 17 -29 13 -39 -2 -49 0 -43 9 4 7 -3 4 -15 -6 l-22 -20
-29 34 c-16 19 -32 31 -36 27 -4 -4 -2 -7 4 -7 7 0 12 -5 12 -11 0 -7 -8 -6
-22 4 -13 8 -22 21 -20 27 1 6 -2 9 -7 6 -5 -4 -11 0 -14 6 -2 7 -5 -4 -5 -24
0 -41 -8 -59 -25 -57 -28 3 -36 -2 -30 -18 12 -32 -17 -2 -38 38 -20 40 -20
40 0 30 11 -6 25 -19 30 -29 10 -15 10 -15 11 3 0 19 -24 42 -62 57 -10 4 -18
3 -18 -1z m40 -81 c0 -5 -5 -10 -11 -10 -5 0 -7 5 -4 10 3 6 8 10 11 10 2 0 4
-4 4 -10z m294 -19 c19 -21 16 -25 -29 -35 -16 -4 -39 -9 -50 -12 -18 -5 -18
-4 3 11 23 17 29 35 11 35 -5 0 -8 -3 -6 -7 3 -5 -6 -9 -20 -9 -23 -2 -23 -1
-6 11 17 12 44 21 69 24 6 0 19 -8 28 -18z m-312 -62 c10 -5 38 -9 62 -9 50 0
98 -18 93 -34 -2 -6 -23 -10 -46 -9 l-43 2 26 -20 c32 -25 34 -39 5 -32 -14 4
-27 0 -35 -12 -10 -13 -20 -16 -40 -11 -22 6 -25 5 -17 -6 13 -16 13 -49 1
-64 -10 -14 -59 -15 -75 -2 -9 7 -5 25 14 71 15 34 32 69 40 78 26 32 9 40
-23 11 -10 -10 -29 -18 -42 -19 -37 -3 -55 -23 -49 -58 7 -49 0 -57 -34 -39
-17 8 -35 26 -41 39 -6 13 -24 30 -40 38 -35 17 -26 26 52 53 30 10 68 28 84
40 30 22 39 21 108 -17z m-330 -223 c8 -12 -11 -51 -45 -90 l-25 -29 -65 47
c-85 60 -94 72 -65 79 12 4 48 4 79 0 34 -3 59 -2 63 5 7 12 48 4 58 -12z
m277 -47 c-11 -16 -22 -29 -25 -29 -12 0 -21 46 -12 58 6 6 7 12 2 12 -5 0 -2
5 6 10 10 6 20 4 32 -7 17 -15 16 -17 -3 -44z m-211 4 c-1 -5 4 -21 10 -36 13
-31 7 -51 -11 -40 -7 4 -21 7 -31 8 -29 0 -30 22 -2 50 25 25 37 31 34 18z
m172 -33 c0 -4 -10 -15 -22 -26 -20 -18 -21 -18 -15 -1 4 10 7 25 7 33 0 8 6
11 15 8 8 -4 15 -9 15 -14z m232 -10 c24 -21 28 -29 17 -30 -20 0 -33 -27 -16
-33 7 -2 -10 -3 -38 -3 -60 2 -75 10 -75 41 0 58 61 72 112 25z m-610 -41 c-2
-14 12 -26 38 -31 3 -1 11 -8 18 -15 8 -7 18 -11 23 -8 11 7 11 3 3 -19 -3 -9
-10 -13 -15 -10 -5 3 -7 10 -4 15 3 5 -1 6 -9 3 -9 -3 -23 2 -32 11 -9 9 -23
14 -31 11 -8 -3 -12 -2 -9 3 3 5 -5 17 -19 27 -29 22 -23 36 13 32 19 -2 26
-8 24 -19z m332 -8 c7 -11 -32 -47 -41 -38 -3 4 -1 7 5 7 7 0 11 3 11 8 -5 28
12 44 25 23z m-199 -21 c-3 -5 -11 -10 -16 -10 -6 0 -7 5 -4 10 3 6 11 10 16
10 6 0 7 -4 4 -10z m58 -7 c-7 -2 -19 -2 -25 0 -7 3 -2 5 12 5 14 0 19 -2 13
-5z m-23 -41 c0 -4 -9 -13 -20 -20 -18 -11 -19 -10 -8 13 10 21 28 26 28 7z"/>
<path d="M1760 1310 c0 -5 7 -10 16 -10 8 0 12 5 9 10 -3 6 -10 10 -16 10 -5
0 -9 -4 -9 -10z"/>
<path d="M955 1700 c-3 -5 -1 -10 4 -10 6 0 11 5 11 10 0 6 -2 10 -4 10 -3 0
-8 -4 -11 -10z"/>
<path d="M955 1420 c-3 -6 1 -7 9 -4 18 7 21 14 7 14 -6 0 -13 -4 -16 -10z"/>
<path d="M1445 1129 c4 -6 0 -9 -10 -7 -10 2 -20 -4 -22 -12 -3 -9 -1 -11 4
-5 4 6 18 10 31 9 18 -1 20 1 11 12 -14 17 -23 19 -14 3z"/>
<path d="M1454 1059 c-4 -7 -3 -10 3 -6 13 8 35 -17 25 -29 -4 -4 1 -2 11 5 9
7 17 16 17 19 0 3 -3 2 -7 -1 -3 -4 -14 0 -24 9 -13 12 -19 12 -25 3z"/>
<path d="M1512 1039 c-18 -29 -15 -41 8 -27 20 13 26 33 12 42 -4 2 -13 -4
-20 -15z"/>
<path d="M1415 1009 c-4 -6 -5 -12 -2 -15 2 -3 7 2 10 11 7 17 1 20 -8 4z"/>
<path d="M1640 954 c0 -8 5 -12 10 -9 6 4 8 11 5 16 -9 14 -15 11 -15 -7z"/>
<path d="M1310 515 c-7 -9 -11 -18 -8 -20 3 -3 11 1 18 10 7 9 11 18 8 20 -3
3 -11 -1 -18 -10z"/>
<path d="M1148 423 c7 -3 16 -2 19 1 4 3 -2 6 -13 5 -11 0 -14 -3 -6 -6z"/>
</g>
</svg>
