# Blender 4.5.9 LTS
# www.blender.org
mtllib nubes.mtl
o Esfera_geodésica.009
v -50.362656 68.492561 -2.334138
v -49.075516 71.895981 -1.065923
v -52.822849 71.035988 -0.808756
v -53.809147 69.054886 -3.963272
v -50.671303 68.690536 -6.170005
v -47.745796 70.446426 -4.379330
v -51.726517 74.561752 -1.911242
v -54.652023 72.805870 -3.701918
v -53.322304 71.356308 -7.015325
v -49.574970 72.216309 -7.272492
v -48.588669 74.197403 -4.117975
v -52.035160 74.759727 -5.747109
v -22.655050 65.526985 2.084199
v -20.493793 71.241699 4.213672
v -26.785984 69.797668 4.645484
v -28.442085 66.471191 -0.651296
v -23.173296 65.859406 -4.356644
v -18.261047 68.807732 -1.349902
v -24.945120 75.717827 2.794288
v -29.857367 72.769501 -0.212454
v -27.624622 70.335533 -5.776028
v -21.332432 71.779556 -6.207840
v -19.676331 75.106041 -0.911060
v -25.463366 76.050247 -3.646555
v -15.634808 67.554962 0.142743
v -13.473551 73.269676 2.272215
v -19.765741 71.825645 2.704028
v -21.421844 68.499168 -2.592753
v -16.153053 67.887375 -6.298101
v -11.240808 70.835709 -3.291359
v -17.924877 77.745804 0.852831
v -22.837124 74.797470 -2.153910
v -20.604380 72.363510 -7.717484
v -14.312191 73.807533 -8.149298
v -12.656088 77.134018 -2.852516
v -18.443125 78.078217 -5.588011
v -22.751087 68.888931 -3.119969
v -20.589830 74.603645 -0.990496
v -26.882023 73.159622 -0.558684
v -28.538126 69.833138 -5.855464
v -23.269335 69.221352 -9.560812
v -18.357086 72.169678 -6.554070
v -25.041157 79.079773 -2.409880
v -29.953405 76.131447 -5.416621
v -27.720661 73.697479 -10.980196
v -21.428471 75.141510 -11.412008
v -19.772367 78.467987 -6.115228
v -25.559404 79.412193 -8.850723
v -37.471432 72.560738 10.424471
v -32.717953 83.456230 7.082095
v -44.240509 80.476463 3.791261
v -44.448265 68.423744 1.113701
v -33.053902 63.954716 2.749801
v -25.804308 73.245316 6.438441
v -36.757004 86.053116 -4.294426
v -44.006599 76.762520 -7.983068
v -37.092949 66.551605 -8.626720
v -25.570393 69.531364 -5.335887
v -25.362642 81.584091 -2.658327
v -32.339474 77.447098 -11.969095
v -44.085808 67.849472 -2.708350
v -42.349174 72.441406 -0.997255
v -47.405136 71.281090 -0.650280
v -48.735863 68.608170 -4.906402
v -44.502235 68.116577 -7.883759
v -40.555096 70.485649 -5.467752
v -45.925945 76.038116 -2.137772
v -49.873085 73.669044 -4.553778
v -48.079010 71.713280 -9.024277
v -43.023045 72.873596 -9.371250
v -41.692314 75.546524 -5.115129
v -46.342373 76.305222 -7.313181
v -9.626205 73.531441 0.729942
v -8.541695 76.399055 1.798502
v -11.699091 75.674454 2.015183
v -12.530117 74.005234 -0.642719
v -9.886259 73.698242 -2.502046
v -7.421312 75.177704 -0.993276
v -10.775352 78.645164 1.086261
v -13.240297 77.165703 -0.422508
v -12.119915 75.944351 -3.214287
v -8.962521 76.668953 -3.430968
v -8.131495 78.338173 -0.773066
v -11.035406 78.811966 -2.145726
v -45.799164 67.838112 3.353589
v -44.062531 72.430054 5.064683
v -49.118492 71.269737 5.411658
v -50.449223 68.596809 1.155537
v -46.215591 68.105217 -1.821821
v -42.268452 70.474289 0.594185
v -47.639301 76.026756 3.924167
v -51.586441 73.657684 1.508160
v -49.792362 71.701920 -2.962338
v -44.736401 72.862244 -3.309312
v -43.405670 75.535172 0.946809
v -48.055725 76.293861 -1.251243
vn 0.1529 -0.3953 0.9057
vn 0.7340 -0.4628 0.4970
vn -0.3889 -0.7205 0.5741
vn -0.1427 -0.9890 -0.0396
vn 0.5514 -0.8297 -0.0872
vn 0.9371 0.1902 0.2929
vn -0.0032 0.2994 0.9541
vn -0.8799 -0.2268 0.4176
vn -0.4814 -0.6612 -0.5754
vn 0.6415 -0.4035 -0.6524
vn 0.4814 0.6612 0.5754
vn -0.6415 0.4035 0.6524
vn -0.9371 -0.1902 -0.2929
vn 0.0032 -0.2994 -0.9541
vn 0.8799 0.2268 -0.4176
vn 0.1427 0.9890 0.0396
vn -0.5514 0.8297 0.0872
vn -0.7340 0.4628 -0.4970
vn -0.1529 0.3953 -0.9057
vn 0.3889 0.7205 -0.5741
vn -0.3469 0.4101 0.8435
vn 0.3116 0.1518 0.9380
vn -0.7659 -0.1268 0.6303
vn -0.3664 -0.7170 0.5931
vn 0.2996 -0.5447 0.7833
vn 0.7441 0.4741 0.4707
vn -0.3214 0.8920 0.3177
vn -0.9994 0.0233 -0.0272
vn -0.3528 -0.9316 -0.0874
vn 0.7246 -0.6529 0.2204
vn 0.3528 0.9316 0.0874
vn -0.7246 0.6529 -0.2204
vn -0.7441 -0.4741 -0.4707
vn 0.3214 -0.8920 -0.3177
vn 0.9994 -0.0233 0.0272
vn 0.3664 0.7170 -0.5931
vn -0.2996 0.5447 -0.7833
vn -0.3116 -0.1518 -0.9380
vn 0.3469 -0.4101 -0.8435
vn 0.7659 0.1268 -0.6303
vn 0.8799 0.2268 -0.4175
vt 0.181819 0.000000
vt 0.272728 0.157461
vt 0.090910 0.157461
vt 0.363637 0.000000
vt 0.454546 0.157461
vt 0.909091 0.000000
vt 1.000000 0.157461
vt 0.818182 0.157461
vt 0.727273 0.000000
vt 0.636364 0.157461
vt 0.545455 0.000000
vt 0.363637 0.314921
vt 0.181819 0.314921
vt 0.909091 0.314921
vt 0.727273 0.314921
vt 0.545455 0.314921
vt 0.000000 0.314921
vt 0.272728 0.472382
vt 0.090910 0.472382
vt 0.818182 0.472382
vt 0.636364 0.472382
vt 0.454546 0.472382
s 1
f 1/1/1 2/2/1 3/3/1
f 2/2/2 1/4/2 6/5/2
f 1/6/3 3/7/3 4/8/3
f 1/9/4 4/8/4 5/10/4
f 1/11/5 5/10/5 6/5/5
f 2/2/6 6/5/6 11/12/6
f 3/3/7 2/2/7 7/13/7
f 4/8/8 3/7/8 8/14/8
f 5/10/9 4/8/9 9/15/9
f 6/5/10 5/10/10 10/16/10
f 2/2/11 11/12/11 7/13/11
f 3/3/12 7/13/12 8/17/12
f 4/8/13 8/14/13 9/15/13
f 5/10/14 9/15/14 10/16/14
f 6/5/15 10/16/15 11/12/15
f 7/13/16 11/12/16 12/18/16
f 8/17/17 7/13/17 12/19/17
f 9/15/18 8/14/18 12/20/18
f 10/16/19 9/15/19 12/21/19
f 11/12/20 10/16/20 12/22/20
f 13/1/1 14/2/1 15/3/1
f 14/2/2 13/4/2 18/5/2
f 13/6/3 15/7/3 16/8/3
f 13/9/4 16/8/4 17/10/4
f 13/11/5 17/10/5 18/5/5
f 14/2/6 18/5/6 23/12/6
f 15/3/7 14/2/7 19/13/7
f 16/8/8 15/7/8 20/14/8
f 17/10/9 16/8/9 21/15/9
f 18/5/10 17/10/10 22/16/10
f 14/2/11 23/12/11 19/13/11
f 15/3/12 19/13/12 20/17/12
f 16/8/13 20/14/13 21/15/13
f 17/10/14 21/15/14 22/16/14
f 18/5/15 22/16/15 23/12/15
f 19/13/16 23/12/16 24/18/16
f 20/17/17 19/13/17 24/19/17
f 21/15/18 20/14/18 24/20/18
f 22/16/19 21/15/19 24/21/19
f 23/12/20 22/16/20 24/22/20
f 25/1/1 26/2/1 27/3/1
f 26/2/2 25/4/2 30/5/2
f 25/6/3 27/7/3 28/8/3
f 25/9/4 28/8/4 29/10/4
f 25/11/5 29/10/5 30/5/5
f 26/2/6 30/5/6 35/12/6
f 27/3/7 26/2/7 31/13/7
f 28/8/8 27/7/8 32/14/8
f 29/10/9 28/8/9 33/15/9
f 30/5/10 29/10/10 34/16/10
f 26/2/11 35/12/11 31/13/11
f 27/3/12 31/13/12 32/17/12
f 28/8/13 32/14/13 33/15/13
f 29/10/14 33/15/14 34/16/14
f 30/5/15 34/16/15 35/12/15
f 31/13/16 35/12/16 36/18/16
f 32/17/17 31/13/17 36/19/17
f 33/15/18 32/14/18 36/20/18
f 34/16/19 33/15/19 36/21/19
f 35/12/20 34/16/20 36/22/20
f 37/1/1 38/2/1 39/3/1
f 38/2/2 37/4/2 42/5/2
f 37/6/3 39/7/3 40/8/3
f 37/9/4 40/8/4 41/10/4
f 37/11/5 41/10/5 42/5/5
f 38/2/6 42/5/6 47/12/6
f 39/3/7 38/2/7 43/13/7
f 40/8/8 39/7/8 44/14/8
f 41/10/9 40/8/9 45/15/9
f 42/5/10 41/10/10 46/16/10
f 38/2/11 47/12/11 43/13/11
f 39/3/12 43/13/12 44/17/12
f 40/8/13 44/14/13 45/15/13
f 41/10/14 45/15/14 46/16/14
f 42/5/15 46/16/15 47/12/15
f 43/13/16 47/12/16 48/18/16
f 44/17/17 43/13/17 48/19/17
f 45/15/18 44/14/18 48/20/18
f 46/16/19 45/15/19 48/21/19
f 47/12/20 46/16/20 48/22/20
f 49/1/21 50/2/21 51/3/21
f 50/2/22 49/4/22 54/5/22
f 49/6/23 51/7/23 52/8/23
f 49/9/24 52/8/24 53/10/24
f 49/11/25 53/10/25 54/5/25
f 50/2/26 54/5/26 59/12/26
f 51/3/27 50/2/27 55/13/27
f 52/8/28 51/7/28 56/14/28
f 53/10/29 52/8/29 57/15/29
f 54/5/30 53/10/30 58/16/30
f 50/2/31 59/12/31 55/13/31
f 51/3/32 55/13/32 56/17/32
f 52/8/33 56/14/33 57/15/33
f 53/10/34 57/15/34 58/16/34
f 54/5/35 58/16/35 59/12/35
f 55/13/36 59/12/36 60/18/36
f 56/17/37 55/13/37 60/19/37
f 57/15/38 56/14/38 60/20/38
f 58/16/39 57/15/39 60/21/39
f 59/12/40 58/16/40 60/22/40
f 61/1/1 62/2/1 63/3/1
f 62/2/2 61/4/2 66/5/2
f 61/6/3 63/7/3 64/8/3
f 61/9/4 64/8/4 65/10/4
f 61/11/5 65/10/5 66/5/5
f 62/2/6 66/5/6 71/12/6
f 63/3/7 62/2/7 67/13/7
f 64/8/8 63/7/8 68/14/8
f 65/10/9 64/8/9 69/15/9
f 66/5/10 65/10/10 70/16/10
f 62/2/11 71/12/11 67/13/11
f 63/3/12 67/13/12 68/17/12
f 64/8/13 68/14/13 69/15/13
f 65/10/14 69/15/14 70/16/14
f 66/5/15 70/16/15 71/12/15
f 67/13/16 71/12/16 72/18/16
f 68/17/17 67/13/17 72/19/17
f 69/15/18 68/14/18 72/20/18
f 70/16/19 69/15/19 72/21/19
f 71/12/20 70/16/20 72/22/20
f 73/1/1 74/2/1 75/3/1
f 74/2/2 73/4/2 78/5/2
f 73/6/3 75/7/3 76/8/3
f 73/9/4 76/8/4 77/10/4
f 73/11/5 77/10/5 78/5/5
f 74/2/6 78/5/6 83/12/6
f 75/3/7 74/2/7 79/13/7
f 76/8/8 75/7/8 80/14/8
f 77/10/9 76/8/9 81/15/9
f 78/5/10 77/10/10 82/16/10
f 74/2/11 83/12/11 79/13/11
f 75/3/12 79/13/12 80/17/12
f 76/8/13 80/14/13 81/15/13
f 77/10/14 81/15/14 82/16/14
f 78/5/41 82/16/41 83/12/41
f 79/13/16 83/12/16 84/18/16
f 80/17/17 79/13/17 84/19/17
f 81/15/18 80/14/18 84/20/18
f 82/16/19 81/15/19 84/21/19
f 83/12/20 82/16/20 84/22/20
f 85/1/1 86/2/1 87/3/1
f 86/2/2 85/4/2 90/5/2
f 85/6/3 87/7/3 88/8/3
f 85/9/4 88/8/4 89/10/4
f 85/11/5 89/10/5 90/5/5
f 86/2/6 90/5/6 95/12/6
f 87/3/7 86/2/7 91/13/7
f 88/8/8 87/7/8 92/14/8
f 89/10/9 88/8/9 93/15/9
f 90/5/10 89/10/10 94/16/10
f 86/2/11 95/12/11 91/13/11
f 87/3/12 91/13/12 92/17/12
f 88/8/13 92/14/13 93/15/13
f 89/10/14 93/15/14 94/16/14
f 90/5/15 94/16/15 95/12/15
f 91/13/16 95/12/16 96/18/16
f 92/17/17 91/13/17 96/19/17
f 93/15/18 92/14/18 96/20/18
f 94/16/19 93/15/19 96/21/19
f 95/12/20 94/16/20 96/22/20
